<svg width="19" height="20" viewBox="0 0 19 20" fill="none" xmlns="http://www.w3.org/2000/svg">
<path d="M12.8765 3.72395C10.8563 3.72395 9.1879 2.41269 6.64804 2.41269C5.70728 2.41269 4.86457 2.57796 4.08285 2.86556C4.19119 2.58262 4.2373 2.27966 4.21804 1.97731C4.15124 0.905314 3.27245 0.045451 2.19925 0.00179624C0.993165 -0.0472871 0 0.915907 0 2.1111C0 2.82835 0.358022 3.46164 0.904762 3.84315V18.3968C0.904762 18.8965 1.30983 19.3016 1.80952 19.3016H2.4127C2.91239 19.3016 3.31746 18.8965 3.31746 18.3968V14.8381C4.38474 14.3833 5.7144 14.0041 7.63148 14.0041C9.65166 14.0041 11.32 15.3154 13.8599 15.3154C15.6758 15.3154 17.1271 14.7011 18.4781 13.7751C18.8055 13.5508 19 13.1783 19 12.7814V3.61696C19 2.73508 18.0851 2.15162 17.2853 2.5231C15.9908 3.12432 14.4031 3.72395 12.8765 3.72395Z" fill="#474747"/>
</svg>
